<?xml version="1.0" encoding="iso-8859-1"?>
<!-- Generator: Adobe Illustrator 18.1.1, SVG Export Plug-In . SVG Version: 6.00 Build 0)  -->
<svg version="1.1" id="Layer_1" xmlns="http://www.w3.org/2000/svg" xmlns:xlink="http://www.w3.org/1999/xlink" x="0px" y="0px"
	 viewBox="0 0 334.579 178.462" style="enable-background:new 0 0 334.579 178.462;" xml:space="preserve">
<path style="fill:#FEF7E9;" d="M0,72.611v28.62c0,0,18.592,15.9,0,20.67v21.73l17.043,2.65c0,0,27.888-31.27,49.579,0h77.984V18.02
	h-29.954c0,0-5.681-30.21-16.01,0c0,0-50.612-3.71-62.49,50.881L0,72.611z"/>
<path style="fill:#E12946;" d="M116.864,18.112c0,0-7.251-38.56-20.435,0H116.864z"/>
<path style="fill:#CFE7CA;stroke:#CFE7CA;stroke-width:3.1391;stroke-miterlimit:10;" d="M52.428,69.645l23.893-26.749
	c1.527-1.71,3.711-2.687,6.003-2.687h42.036c3.032,0,5.49,2.458,5.49,5.49v33.17c0,2.371-1.9,4.304-4.27,4.345l-66.688,1.167
	C51.367,84.512,47.343,75.338,52.428,69.645z"/>
<rect x="72.303" y="118.191" style="fill:#0E8085;stroke:#0E8085;stroke-width:0.8965;stroke-miterlimit:10;" width="72.303" height="9.01"/>
<path style="fill:#FEF7E9;" d="M158.034,0v118.193v28.088h68.257c0,0,23.608-32.33,47.729,0h60.559V0H158.034z"/>
<rect x="158.034" y="118.191" style="fill:#0E8085;stroke:#0E8085;stroke-width:0.8965;stroke-miterlimit:10;" width="158.55" height="9.01"/>
<ellipse style="fill:#6D6E71;stroke:#6D6E71;stroke-width:0.8965;stroke-miterlimit:10;" cx="42.976" cy="157.834" rx="20.031" ry="19.643"/>
<ellipse style="fill:#6D6E71;stroke:#6D6E71;stroke-width:0.8965;stroke-miterlimit:10;" cx="250.753" cy="158.371" rx="20.031" ry="19.643"/>
<polygon style="fill:#E12946;" points="234.912,46.056 205.117,46.056 205.297,75.39 235.125,75.567 234.912,103.903 
	268.576,103.903 268.576,74.979 297.627,74.979 298.159,46.056 268.576,46.056 268.811,15.525 234.912,15.525 "/>
<path style="fill:none;stroke:#E12946;stroke-width:1.0655;stroke-miterlimit:10;" d="M67.37,57.406c0,0,4.056-1.287,3.466,4.314
	l3.54,0.757l3.687,8.022L82.34,52.79l4.277,12.714l8.702,0.151v3.935l2.212,0.908l1.917,6.66l6.047-24.369l5.457,18.163l3.245-5.979
	h10.472"/>
</svg>
