<?xml version="1.0" encoding="iso-8859-1"?>
<!-- Generator: Adobe Illustrator 18.1.1, SVG Export Plug-In . SVG Version: 6.00 Build 0)  -->
<svg version="1.1" id="Layer_1" xmlns="http://www.w3.org/2000/svg" xmlns:xlink="http://www.w3.org/1999/xlink" x="0px" y="0px"
	 viewBox="0 0 147.808 284.744" style="enable-background:new 0 0 147.808 284.744;" xml:space="preserve">
<path style="fill:#F7D2A0;stroke:#F7D2A0;stroke-width:0.8093;stroke-miterlimit:10;" d="M44.182,117.922l-3.728,10.931
	l23.661,23.229c0,0,38.119,0.41,44.51-21.726v-5.466l-2.397-8.472L44.182,117.922z"/>
<path style="fill:#F7D2A0;stroke:#F7D2A0;stroke-width:0.8093;stroke-miterlimit:10;" d="M128.624,48.292
	c1.799,84.555-40.585,84.19-49.017,83.284c-1.173-0.126-2.347-0.223-3.525-0.279c-69.721-3.343-51.18-93.39-51.18-93.39
	l15.645-19.13L124.43,32.1L128.624,48.292z"/>
<path style="fill:#7E431D;" d="M128.624,48.292l0.056-19.061c0-21.111-39.6-19.881-39.6-19.881
	C72.258-4.389,56.839-0.211,48.026,4.472c-0.574,0.305-1.161,0.577-1.756,0.815C35.082,9.763,26.941,19.835,25.532,32.073
	c-0.4,3.471-0.629,5.835-0.629,5.835l10.851-7.242c0,0,13.581,5.534,22.968-0.41c0,0,30.158,17.627,63.311,14.142L128.624,48.292z"
	/>
<polyline style="fill:none;stroke:#000000;stroke-width:0.4046;stroke-miterlimit:10;" points="80.118,39.35 64.115,85.391 
	84.686,90.31 107.996,122.49 "/>
<ellipse style="fill:#FFFFFF;stroke:#000000;stroke-width:0.8093;stroke-miterlimit:10;" cx="49.535" cy="54.339" rx="6.391" ry="6.046"/>
<ellipse style="fill:#FFFFFF;stroke:#000000;stroke-width:0.8093;stroke-miterlimit:10;" cx="106.36" cy="59.357" rx="6.391" ry="6.046"/>
<path style="fill:#E12946;stroke:#000000;stroke-width:0.8093;stroke-miterlimit:10;" d="M69.308,98.508
	c0,0-2.397,18.652,18.774,8.198C88.081,106.707,76.098,107.117,69.308,98.508z"/>
<path style="fill:#FEF7E9;" d="M114.167,236.858H32.359c0,0-1.598-67.228-0.399-82.805s-13.98,2.46-13.98,2.46l-9.187-7.379
	c1.598-9.018,34.352-28.695,34.352-28.695s30.828,62.309,64.852,2.051c0,0,29.559,19.676,31.156,28.695l-9.187,7.379
	c0,0-15.217-10.659-14.018,4.918s-1.463,73.376-1.463,73.376H114.167z"/>
<path style="fill:#F7D2A0;" d="M17.979,156.512c0,0-22.169,40.992,14.979,32.999c0,0,11.584-2.46,2.397,3.484
	c0,0,18.907-3.416,4.327,3.553c0,0,18.441,3.826-0.133,5.261c0,0,14.38,4.714-2.197,4.714c0,0,9.387,6.286-8.588,0.956
	c-17.975-5.329-41.941-23.229-19.972-58.346L17.979,156.512z"/>
<path style="fill:#F7D2A0;" d="M129.829,158.877c0,0,22.169,40.992-14.979,32.999c0,0-11.584-2.46-2.397,3.484
	c0,0-18.907-3.416-4.327,3.553c0,0-18.441,3.826,0.133,5.261c0,0-14.38,4.714,2.197,4.714c0,0-9.387,6.286,8.588,0.956
	c17.975-5.329,41.941-23.229,19.972-58.346L129.829,158.877z"/>
<polygon style="fill:#E12946;stroke:#E12946;stroke-width:0.8093;stroke-miterlimit:10;" points="94.841,150.323 88.081,150.323 
	88.122,156.979 94.89,157.019 94.841,163.448 102.479,163.448 102.479,156.886 109.071,156.886 109.192,150.323 102.479,150.323 
	102.533,143.396 94.841,143.396 "/>
<path style="fill:#6D6E71;" d="M66.711,209.623c12.449-12.503-0.399-38.764-0.399-38.764
	c-71.3-29.105-42.545-125.575-42.545-125.575S2.145,151.593,73.972,163.071c0,0,55.002,8.074,54.547-101.239
	c0,0,14.045,100.966-49.866,109.437c0,0-0.958,53.222-19.132,48.918L66.711,209.623"/>
<ellipse style="fill:#414042;stroke:#414042;stroke-width:0.8093;stroke-miterlimit:10;" cx="57.275" cy="211.579" rx="9.436" ry="8.608"/>
<ellipse style="stroke:#000000;stroke-width:0.8093;stroke-miterlimit:10;" cx="57.275" cy="211.579" rx="4.594" ry="4.919"/>
<path style="stroke:#000000;stroke-width:0.8093;stroke-miterlimit:10;" d="M43.544,236.858l4.295,35.8
	c0,0-6.692,11.034,14.819,11.673c1.286,0.038,2.584-0.312,3.526-1.212c1.674-1.599,2.2-4.603-8.909-8.549l1.98-37.713H43.544z"/>
<path style="stroke:#000000;stroke-width:0.8093;stroke-miterlimit:10;" d="M83.754,236.858l4.295,35.8
	c0,0-6.858,10.419,14.819,11.673c1.284,0.074,2.584-0.312,3.526-1.212c1.674-1.599,2.2-4.603-8.909-8.549l1.98-37.713H83.754z"/>
</svg>
