<?xml version="1.0" encoding="iso-8859-1"?>
<!-- Generator: Adobe Illustrator 18.1.1, SVG Export Plug-In . SVG Version: 6.00 Build 0)  -->
<svg version="1.1" id="Layer_1" xmlns="http://www.w3.org/2000/svg" xmlns:xlink="http://www.w3.org/1999/xlink" x="0px" y="0px"
	 viewBox="0 0 121.676 269.587" style="enable-background:new 0 0 121.676 269.587;" xml:space="preserve">
<path style="stroke:#000000;stroke-width:0.6962;stroke-miterlimit:10;" d="M61.634,221.741l-3.178,35.8
	c0,0,5.075,10.419-10.966,11.673c-0.95,0.074-1.912-0.312-2.609-1.212c-1.239-1.599-1.628-4.603,6.592-8.548l-1.465-37.713H61.634z"
	/>
<path style="stroke:#000000;stroke-width:0.7274;stroke-miterlimit:10;" d="M79.404,221.741l-3.47,35.8
	c0,0,5.54,10.419-11.971,11.673c-1.037,0.074-2.088-0.312-2.848-1.212c-1.352-1.599-1.777-4.603,7.196-8.548l-1.599-37.713H79.404z"
	/>
<path style="fill:#FEF7E9;" d="M34.603,119.421c0,0-26.181,37.143,7.372,74.036l0.584-23.633c0,0-9.805-17.496,0.314-12.713
	l-1.598,64.631h43.406l1.331-71.6c0,0,8.493,4.919-0.295,15.85l-0.483,25.958c0,0,34.057-40.166,5.704-71.594H77.225
	c0,0-15.445,0.272-15.711,26.234C61.514,146.589,58.835,118.601,34.603,119.421z"/>
<ellipse style="fill:#E12946;stroke:#000000;stroke-width:0.7198;stroke-miterlimit:10;" cx="60.377" cy="163.186" rx="3.124" ry="3.206"/>
<ellipse style="fill:#E12946;stroke:#000000;stroke-width:0.7198;stroke-miterlimit:10;" cx="60.377" cy="174.254" rx="3.124" ry="3.206"/>
<ellipse style="fill:#E12946;stroke:#000000;stroke-width:0.7198;stroke-miterlimit:10;" cx="60.377" cy="185.741" rx="3.124" ry="3.206"/>
<ellipse style="fill:#E12946;stroke:#000000;stroke-width:0.7198;stroke-miterlimit:10;" cx="60.377" cy="197.394" rx="3.124" ry="3.206"/>
<path style="fill:#7E431D;" d="M33.927,118.944H2.13c0,0,0.654-42.913,11.378-68.44s71.932-16.221,81.272-1.471
	s17.841,64.618,17.841,64.618l-32.992,6.99L33.927,118.944z"/>
<path style="fill:#F7D2A0;stroke:#F7D2A0;stroke-width:0.8093;stroke-miterlimit:10;" d="M95.995,52.787
	c6.787,71.252-26.674,73.593-33.383,73.355c-0.933-0.033-1.866-0.041-2.799-0.015c-55.216,1.535-46.305-75.623-46.305-75.623
	l11.128-17.123l67.022,6.002L95.995,52.787z"/>
<ellipse style="fill:#FFFFFF;stroke:#000000;stroke-width:0.8093;stroke-miterlimit:10;" cx="36.748" cy="59.958" rx="5.858" ry="6.012"/>
<ellipse style="fill:#FFFFFF;stroke:#000000;stroke-width:0.8093;stroke-miterlimit:10;" cx="74.224" cy="62.348" rx="5.858" ry="6.012"/>
<line style="fill:none;stroke:#000000;stroke-width:0.3312;stroke-miterlimit:10;" x1="30.986" y1="51.206" x2="42.511" y2="49.034"/>
<line style="fill:none;stroke:#000000;stroke-width:0.3312;stroke-miterlimit:10;" x1="69.554" y1="50.202" x2="81.435" y2="54.241"/>
<path style="fill:#FEF7E9;" d="M13.508,50.505L0,22.244c0,0,65.222-51.824,121.676,2.734L94.781,49.034
	C94.781,49.034,56.372,20.059,13.508,50.505z"/>
<polygon style="fill:#E12946;stroke:#000000;stroke-width:0.8093;stroke-miterlimit:10;" points="52.06,17.355 44.378,17.355 
	44.425,24.918 52.115,24.963 52.06,32.268 60.739,32.268 60.739,24.812 68.228,24.812 68.366,17.355 60.739,17.355 60.799,9.484 
	52.06,9.484 "/>
<polyline style="fill:none;stroke:#000000;stroke-width:0.3312;stroke-miterlimit:10;" points="60.727,36.847 46.069,89.199 
	56.372,90.293 66.835,126.563 "/>
<path style="fill:none;stroke:#E12946;stroke-width:0.3312;stroke-miterlimit:10;" d="M41.275,103.137c0,0,3.994,7.925,16.244,4.099
	"/>
</svg>
